# xmcd CD database file
#
# Track frame offsets:
#	150
#	20384
#	36295
#	48716
#	63914
#	81159
#	94073
#	113182
#	130297
#	151327
#	167180
#	190626
#	208784
#	229093
#
# Disc length: 3391 seconds
#
# Revision: 1
# Processed by: cddbd v1.5.2PL0 Copyright (c) Steve Scherf et al.
# Submitted via: CDex 1.51
#
DISCID=ba0d3d0e
DTITLE=Steve Earle - Live At Montreux 2005
DYEAR=2006
DGENRE=Alternative Country - Singer-Songwriter
TTITLE0=Jerusalem
TTITLE1=What's A Simple Man To Do
TTITLE2=The Devil's Right Hand
TTITLE3=Warrior
TTITLE4=Rich Man's War
TTITLE5=South Nashville Blues
TTITLE6=Cckmp
TTITLE7=Dixieland
TTITLE8=Ellis Unit One
TTITLE9=Condi Condi
TTITLE10=The Mountain
TTITLE11=The Revolution Starts Now
TTITLE12=Copperhead Road
TTITLE13=Christmas In Washington
EXTD=YEAR: 2006
EXTT0=
EXTT1=
EXTT2=
EXTT3=
EXTT4=
EXTT5=
EXTT6=
EXTT7=
EXTT8=
EXTT9=
EXTT10=
EXTT11=
EXTT12=
EXTT13=
PLAYORDER=
